<?xml version="1.0" encoding="utf-8"?>
<!-- Generator: Adobe Illustrator 22.0.1, SVG Export Plug-In . SVG Version: 6.00 Build 0)  -->
<svg version="1.1" id="图层_1" xmlns="http://www.w3.org/2000/svg" xmlns:xlink="http://www.w3.org/1999/xlink" x="0px" y="0px"
	 viewBox="0 0 73 24" style="enable-background:new 0 0 73 24;" xml:space="preserve">
<style type="text/css">
	.st0{fill:#ED7D22;}
	.st1{enable-background:new    ;}
	.st2{fill:#FFFFFF;}
</style>
<title>home</title>
<desc>Created with Sketch.</desc>
<g id="兔波波门店工作台">
	<g id="待寄出-寄件详情" transform="translate(-360.000000, -118.000000)">
		<g id="home" transform="translate(360.000000, 118.000000)">
			<g id="Combined-Shape">
				<path class="st0" d="M3.2,16.1l-2.7-2.7c-0.8-0.8-0.8-2,0-2.8l2.7-2.7V2c0-1.1,0.9-2,2-2H71c1.1,0,2,0.9,2,2v20c0,1.1-0.9,2-2,2
					H5.2c-1.1,0-2-0.9-2-2V16.1z"/>
			</g>
			<g class="st1">
				<path class="st2" d="M18.4,6.4v4h4.8v0.9h-4.8v5.6h5.9v0.9H12.7v-0.9h4.7V6.4H18.4z"/>
				<path class="st2" d="M27.2,8.5v9.8h-0.9V8.5H27.2z M29.8,8.6l-0.8,0.4c-0.5-0.9-1-1.7-1.6-2.4l0.9-0.4C28.8,7,29.3,7.8,29.8,8.6
					z M34.3,18.2L34,17.3l1.2,0c0.4,0,0.6-0.2,0.6-0.7V7.9h-5V7.1h5.9v9.8c0,0.9-0.4,1.3-1.3,1.3H34.3z"/>
				<path class="st2" d="M50.3,12.5v0.9h-2.1v3.9c0,0.7-0.4,1.1-1.1,1.1h-1.3l-0.2-0.9c0.4,0,0.8,0.1,1.2,0.1c0.4,0,0.5-0.2,0.5-0.5
					v-3.7h-8.5v-0.9H50.3z M49.8,9.9H49V8.2H40v1.6h-0.9V7.4h4.9c-0.2-0.4-0.3-0.7-0.5-1l1-0.2C44.7,6.6,44.9,7,45,7.4h4.8V9.9z
					 M44.2,9.3l0-0.2V8.5h0.9v0.5c0,0.1,0,0.2,0,0.2h3.3v0.8h-3.5c-0.1,0.1-0.1,0.2-0.2,0.3c1.4,0.3,2.7,0.7,3.9,1.2l-0.5,0.7
					c-1.3-0.6-2.6-1-4-1.3c-0.1,0.1-0.1,0.1-0.2,0.2c-0.7,0.5-1.9,0.9-3.5,1.1L40,11.6c1.6-0.2,2.7-0.5,3.3-0.9
					c0.2-0.2,0.4-0.4,0.6-0.5h-3.2V9.3H44.2z M45.5,14.2v2.9h-4.8v-2.9H45.5z M44.6,15h-3.1v1.3h3.1V15z"/>
				<path class="st2" d="M55.3,6.7c-0.3,1-0.8,2-1.3,2.9v8.7h-0.9v-7.3c-0.4,0.6-0.9,1.1-1.4,1.6l-0.3-1c1.4-1.6,2.4-3.4,3-5.4
					L55.3,6.7z M57.5,7.3c-0.1,0.7-0.2,1.3-0.4,1.8H59V6.4h0.9v2.7h3V10h-3v3.1h3.5v0.9h-3.5v4.2H59v-4.2h-3.8v-0.9H59V10h-2.2
					c-0.3,0.9-0.7,1.6-1.2,2.3L55,11.6c0.8-1.2,1.3-2.7,1.6-4.4L57.5,7.3z"/>
			</g>
		</g>
	</g>
</g>
</svg>
