<?xml version="1.0" encoding="utf-8"?>
<!-- Generator: Adobe Illustrator 22.0.1, SVG Export Plug-In . SVG Version: 6.00 Build 0)  -->
<svg version="1.1" id="图层_1" xmlns="http://www.w3.org/2000/svg" xmlns:xlink="http://www.w3.org/1999/xlink" x="0px" y="0px"
	 viewBox="0 0 73 24" style="enable-background:new 0 0 73 24;" xml:space="preserve">
<style type="text/css">
	.st0{fill:#ED7D22;}
	.st1{enable-background:new    ;}
	.st2{fill:#FFFFFF;}
</style>
<title>shop</title>
<desc>Created with Sketch.</desc>
<g id="兔波波门店工作台">
	<g id="用户下单-寄件详情" transform="translate(-360.000000, -118.000000)">
		<g id="shop" transform="translate(360.000000, 118.000000)">
			<g id="Combined-Shape">
				<path class="st0" d="M3.2,16.1l-2.7-2.7c-0.8-0.8-0.8-2,0-2.8l2.7-2.7V2c0-1.1,0.9-2,2-2H71c1.1,0,2,0.9,2,2v20c0,1.1-0.9,2-2,2
					H5.2c-1.1,0-2-0.9-2-2V16.1z"/>
			</g>
			<g class="st1">
				<path class="st2" d="M19.3,17.1c-2,0.4-4.2,0.8-6.5,1.1l-0.2-0.9c1-0.1,2.1-0.2,3-0.4v-2.5h-2.5v-0.9h2.5v-1.5h0.9v1.5H19v0.9
					h-2.3v2.3c0.9-0.2,1.8-0.3,2.7-0.5V17.1z M19.3,7v0.9H16c-0.6,1.3-1.2,2.3-1.8,2.9c1.3-0.1,2.5-0.3,3.7-0.5
					c-0.3-0.5-0.6-0.9-1-1.4l0.7-0.5c0.9,1.2,1.5,2.2,2,3.1L18.9,12c-0.2-0.3-0.4-0.7-0.6-1c-1.6,0.3-3.4,0.5-5.4,0.7l-0.2-0.8
					c0.2,0,0.3-0.1,0.4-0.1c0.5-0.5,1.2-1.4,1.9-2.9h-2.1V7H19.3z M21.3,7.6v8h-0.9v-8H21.3z M20.8,18.2l-0.2-0.9
					c0.6,0,1.2,0.1,1.8,0.1c0.4,0,0.6-0.2,0.6-0.6V6.4h0.9V17c0,0.8-0.4,1.2-1.2,1.2H20.8z"/>
				<path class="st2" d="M32.5,7.7h4.8v0.9h-9.6v2.8c0,2.8-0.5,5.1-1.4,6.8l-0.7-0.6c0.8-1.5,1.2-3.5,1.2-6.2V7.7h4.8
					c-0.2-0.4-0.4-0.8-0.6-1.2l1-0.2C32.1,6.7,32.3,7.2,32.5,7.7z M32.7,9.1v1.5H37v0.9h-4.3v1.9h3.4v4.8h-0.9v-0.7h-5.5v0.7h-0.9
					v-4.8h3V9.1H32.7z M35.2,16.8v-2.4h-5.5v2.4H35.2z"/>
				<path class="st2" d="M50.3,12.5v0.9h-2.1v3.9c0,0.7-0.4,1.1-1.1,1.1h-1.3l-0.2-0.9c0.4,0,0.8,0.1,1.2,0.1c0.4,0,0.5-0.2,0.5-0.5
					v-3.7h-8.5v-0.9H50.3z M49.8,9.9H49V8.2H40v1.6h-0.9V7.4h4.9c-0.2-0.4-0.3-0.7-0.5-1l1-0.2C44.7,6.6,44.9,7,45,7.4h4.8V9.9z
					 M44.2,9.3l0-0.2V8.5h0.9v0.5c0,0.1,0,0.2,0,0.2h3.3v0.8h-3.5c-0.1,0.1-0.1,0.2-0.2,0.3c1.4,0.3,2.7,0.7,3.9,1.2l-0.5,0.7
					c-1.3-0.6-2.6-1-4-1.3c-0.1,0.1-0.1,0.1-0.2,0.2c-0.7,0.5-1.9,0.9-3.5,1.1L40,11.6c1.6-0.2,2.7-0.5,3.3-0.9
					c0.2-0.2,0.4-0.4,0.6-0.5h-3.2V9.3H44.2z M45.5,14.2v2.9h-4.8v-2.9H45.5z M44.6,15h-3.1v1.3h3.1V15z"/>
				<path class="st2" d="M55.3,6.7c-0.3,1-0.8,2-1.3,2.9v8.7h-0.9v-7.3c-0.4,0.6-0.9,1.1-1.4,1.6l-0.3-1c1.4-1.6,2.4-3.4,3-5.4
					L55.3,6.7z M57.5,7.3c-0.1,0.7-0.2,1.3-0.4,1.8H59V6.4h0.9v2.7h3V10h-3v3.1h3.5v0.9h-3.5v4.2H59v-4.2h-3.8v-0.9H59V10h-2.2
					c-0.3,0.9-0.7,1.6-1.2,2.3L55,11.6c0.8-1.2,1.3-2.7,1.6-4.4L57.5,7.3z"/>
			</g>
		</g>
	</g>
</g>
</svg>
