<?xml version="1.0" encoding="utf-8"?>
<!-- Generator: Adobe Illustrator 22.0.1, SVG Export Plug-In . SVG Version: 6.00 Build 0)  -->
<svg version="1.1" id="图层_1" xmlns="http://www.w3.org/2000/svg" xmlns:xlink="http://www.w3.org/1999/xlink" x="0px" y="0px"
	 viewBox="0 0 60 24" style="enable-background:new 0 0 60 24;" xml:space="preserve">
<style type="text/css">
	.st0{fill:#ED7D22;}
	.st1{enable-background:new    ;}
	.st2{fill:#FFFFFF;}
</style>
<title>unpay2</title>
<desc>Created with Sketch.</desc>
<g id="兔波波门店工作台">
	<g id="待寄出-寄件详情" transform="translate(-548.000000, -118.000000)">
		<g id="unpay2" transform="translate(548.000000, 118.000000)">
			<g id="Rectangle-2">
				<path class="st0" d="M12,0h36c6.6,0,12,5.4,12,12l0,0c0,6.6-5.4,12-12,12H12C5.4,24,0,18.6,0,12l0,0C0,5.4,5.4,0,12,0z"/>
			</g>
			<g class="st1">
				<path class="st2" d="M17,6.4v1.8h4.5v0.9H17v2.3h5.1v0.9h-4.3c0.9,1.6,2.4,3.1,4.5,4.4l-0.7,0.8c-2.2-1.6-3.8-3.3-4.6-5.2H17
					v5.9h-1v-5.9h-0.1c-0.9,2.1-2.5,3.9-4.7,5.3l-0.5-0.9c2.1-1.1,3.6-2.6,4.5-4.4h-4.3v-0.9H16V9.1h-4.4V8.2H16V6.4H17z"/>
				<path class="st2" d="M27.3,6.7c-0.3,0.9-0.7,1.8-1.1,2.6v9.1h-0.9v-7.5c-0.5,0.7-1,1.3-1.6,2l-0.3-1c1.4-1.6,2.4-3.4,3-5.5
					L27.3,6.7z M32.6,9.2V6.4h0.9v2.8h1.9v0.9h-1.9v6.8c0,0.9-0.4,1.3-1.2,1.3h-1.9l-0.2-0.9c0.6,0,1.2,0.1,1.8,0.1
					c0.4,0,0.6-0.2,0.6-0.7v-6.6h-5V9.2H32.6z M31.1,14.6l-0.8,0.6c-0.6-0.9-1.3-2-2.3-3.2l0.8-0.5C29.8,12.7,30.5,13.7,31.1,14.6z"
					/>
				<path class="st2" d="M38.5,14.8c-0.3,1-0.7,1.9-1.2,2.6l-0.7-0.5c0.5-0.7,0.9-1.5,1.2-2.3L38.5,14.8z M39.4,7.6V6.4h0.9v1.2h2.4
					v0.8h-2.4v1.1h2.1v0.8h-5.3V9.5h2.3V8.4h-2.8V7.6H39.4z M42.8,13.2V14h-2.5v3.2c0,0.7-0.4,1-1.1,1h-1.1l-0.2-0.8
					c0.3,0,0.7,0.1,1,0.1c0.3,0,0.5-0.2,0.5-0.5v-3h-2.7v-0.8H42.8z M42,11.4v0.8h-4.4v-0.8H42z M42.6,16.4l-0.7,0.3
					c-0.3-0.8-0.6-1.4-0.9-2l0.8-0.2C42.1,15.1,42.4,15.8,42.6,16.4z M45.7,10.3c0,0.9-0.1,1.7-0.1,2.4c0.6,2.1,1.5,3.7,2.9,4.9
					l-0.6,0.7c-1.1-1.1-2-2.4-2.6-4c0,0.1,0,0.2-0.1,0.3c-0.4,1.5-1.3,2.8-2.7,3.8l-0.6-0.7c1.2-0.9,2.1-1.9,2.5-3.2
					c0.3-1.1,0.5-2.5,0.5-4.2H45.7z M44.8,6.6c-0.1,0.7-0.2,1.3-0.3,1.9H48V9c-0.2,1.1-0.4,2.2-0.7,3.3L46.4,12
					c0.3-0.8,0.5-1.7,0.6-2.8h-2.7c-0.3,1.1-0.7,2-1.2,2.7l-0.7-0.5c0.8-1.2,1.3-2.9,1.5-5L44.8,6.6z"/>
			</g>
		</g>
	</g>
</g>
</svg>
